<?xml version="1.0" encoding="utf-8"?>
<!-- Generator: Adobe Illustrator 28.0.0, SVG Export Plug-In . SVG Version: 6.00 Build 0)  -->
<svg version="1.1" xmlns="http://www.w3.org/2000/svg" xmlns:xlink="http://www.w3.org/1999/xlink" x="0px" y="0px"
	 viewBox="0 0 566.93 566.93" style="enable-background:new 0 0 566.93 566.93;" xml:space="preserve">
<style type="text/css">
	.st0{display:none;}
	.st1{display:inline;fill:url(#SVGID_1_);}
	.st2{fill:url(#SVGID_00000134940793410916802340000012152727345990551189_);}
</style>
<g id="图层_1" class="st0">
	<linearGradient id="SVGID_1_" gradientUnits="userSpaceOnUse" x1="243.8955" y1="242.4733" x2="317.2452" y2="295.765">
		<stop  offset="0" style="stop-color:#243949"/>
		<stop  offset="0.4391" style="stop-color:#375269"/>
		<stop  offset="1" style="stop-color:#4D7697"/>
	</linearGradient>
	<circle class="st1" cx="280.57" cy="269.12" r="45.33"/>
</g>
<g id="图层_2">
	
		<linearGradient id="SVGID_00000094584563535618324050000012133665724954861451_" gradientUnits="userSpaceOnUse" x1="42.2912" y1="155.5037" x2="425.2301" y2="433.725">
		<stop  offset="0" style="stop-color:#243949"/>
		<stop  offset="0.4391" style="stop-color:#375269"/>
		<stop  offset="1" style="stop-color:#4D7697"/>
	</linearGradient>
	<path style="fill:url(#SVGID_00000094584563535618324050000012133665724954861451_);" d="M423.41,319.91
		c-0.67,7.56-1.44,14.93-2.28,21.9c-3.39,28.01-8.28,52.44-14.96,74.67c0,0,0,0.01,0,0.01c-5.83,19.89-13.06,39.49-21.48,58.27
		c0,0.01-0.01,0.01-0.01,0.02c-0.59,1.32-1.2,2.63-1.8,3.94l-0.23,0.5c-0.84,1.83-2.65,2.91-4.54,2.91c-0.7,0-1.41-0.15-2.09-0.46
		c-2.51-1.16-3.6-4.13-2.45-6.63l0.23-0.51c0.59-1.28,1.19-2.57,1.76-3.86c0,0,0-0.01,0.01-0.01c8.24-18.37,15.31-37.56,21.02-57.02
		c0,0,0-0.01,0-0.01c0-0.01,0-0.01,0-0.02c6.51-21.68,11.29-45.56,14.61-73c0.83-6.86,1.59-14.12,2.25-21.58
		c0.24-2.75,2.67-4.79,5.42-4.54C421.62,314.73,423.65,317.16,423.41,319.91z M380.67,402.52c4.02-14.5,7.32-29.4,9.79-44.27
		c0.45-2.72-1.39-5.3-4.11-5.75c-2.73-0.46-5.3,1.39-5.75,4.11c-2.42,14.52-5.64,29.07-9.57,43.24
		c-4.91,17.72-11.04,35.22-18.2,52.03c0,0,0,0,0,0c-6.17,14.47-13.27,28.8-21.1,42.59c0,0,0,0,0,0c-0.73,1.28-1.47,2.55-2.21,3.83
		c-1.39,2.39-0.58,5.45,1.81,6.84c0.79,0.46,1.66,0.68,2.51,0.68c1.72,0,3.4-0.89,4.33-2.49c0.76-1.3,1.51-2.6,2.26-3.91
		c0,0,0,0,0-0.01c8.02-14.12,15.29-28.79,21.6-43.61c0,0,0,0,0-0.01C369.36,438.58,375.63,420.66,380.67,402.52z M320.65,476.56
		c3.16-5.91,6.21-11.96,9.06-17.99c1.18-2.5,0.11-5.48-2.39-6.66c-2.5-1.18-5.48-0.11-6.66,2.39c-2.78,5.88-5.75,11.79-8.83,17.54
		c0,0,0,0,0,0c-6.43,12.01-13.5,23.73-21.02,34.84c0,0,0,0,0,0c-0.4,0.59-0.81,1.18-1.22,1.76c-0.29,0.42-0.59,0.83-0.88,1.25
		c-1.57,2.27-1,5.39,1.27,6.96c0.87,0.6,1.86,0.89,2.84,0.89c1.59,0,3.15-0.75,4.12-2.16c0.28-0.4,0.55-0.79,0.83-1.19
		c0.44-0.63,0.89-1.26,1.32-1.9c0,0,0,0,0-0.01C306.8,500.9,314.05,488.88,320.65,476.56C320.64,476.57,320.64,476.56,320.65,476.56
		z M330.11,432.6C330.11,432.6,330.11,432.6,330.11,432.6c-0.49,1.23-0.99,2.45-1.49,3.67c-1.05,2.55,0.17,5.48,2.73,6.52
		c0.62,0.26,1.26,0.38,1.9,0.38c1.97,0,3.83-1.17,4.63-3.1c0.51-1.25,1.02-2.5,1.52-3.75c0,0,0-0.01,0-0.01
		c6.27-15.69,11.58-31.89,15.79-48.14c2.3-8.9,4.33-18.1,6.05-27.35c0.5-2.72-1.29-5.32-4.01-5.83c-2.72-0.51-5.32,1.29-5.83,4.01
		c-1.67,9.02-3.65,17.99-5.89,26.66C341.4,401.51,336.22,417.3,330.11,432.6z M300.9,452.98c3.98-8.03,7.73-16.32,11.13-24.64
		c1.04-2.56-0.18-5.48-2.74-6.52c-2.56-1.04-5.48,0.18-6.52,2.74c-3.31,8.1-6.96,16.17-10.83,23.99
		c-5.5,11.1-11.63,22.02-18.22,32.46c0,0,0,0,0,0c-6.5,10.3-13.56,20.34-20.98,29.84c0,0,0,0,0,0c0,0,0,0,0,0
		c-0.63,0.81-1.28,1.61-1.92,2.41l-0.98,1.21c-1.73,2.15-1.38,5.3,0.77,7.03c0.92,0.74,2.03,1.1,3.12,1.1c1.46,0,2.92-0.64,3.9-1.87
		l0.95-1.18c0.68-0.84,1.36-1.68,2.03-2.54c0,0,0,0,0,0c7.63-9.76,14.88-20.08,21.55-30.66c0,0,0,0,0-0.01
		C288.95,475.6,295.25,464.38,300.9,452.98z M246.57,488.47c6.76-9.4,13.07-19.17,18.76-29.05c2.99-5.18,5.94-10.65,8.78-16.25
		c1.25-2.46,0.26-5.47-2.2-6.72c-2.46-1.25-5.47-0.26-6.72,2.2c-2.76,5.44-5.62,10.74-8.52,15.77
		c-5.53,9.59-11.66,19.08-18.22,28.21c0,0,0,0,0,0c-6.5,9.04-13.57,17.9-21,26.33c0,0,0,0,0,0.01c-1.82,2.06-3.7,4.14-5.59,6.18
		c-1.88,2.02-1.76,5.19,0.26,7.07c0.96,0.89,2.18,1.33,3.4,1.33c1.34,0,2.68-0.54,3.67-1.6c1.95-2.1,3.89-4.25,5.77-6.37
		c0,0,0,0,0,0C232.6,506.91,239.88,497.79,246.57,488.47C246.57,488.47,246.57,488.47,246.57,488.47z M213.76,484.83
		c6.73-8.42,13.05-17.21,18.8-26.14c0,0,0,0,0-0.01c2.35-3.64,4.7-7.48,7.19-11.74c1.39-2.38,0.59-5.45-1.79-6.84
		c-2.38-1.4-5.45-0.59-6.84,1.79c-2.42,4.14-4.7,7.86-6.97,11.38c0,0,0,0,0,0c-5.57,8.64-11.7,17.16-18.22,25.32
		c-6.54,8.19-13.59,16.14-20.95,23.63c0,0,0,0,0,0.01c-4.11,4.18-8.54,8.43-13.16,12.62c-2.05,1.85-2.2,5.02-0.35,7.06
		c0.99,1.09,2.34,1.64,3.71,1.64c1.2,0,2.4-0.43,3.36-1.29c4.76-4.32,9.33-8.7,13.58-13.02c0,0,0,0,0-0.01
		C199.74,501.49,207.01,493.29,213.76,484.83z M202.63,452.41c1.26-1.8,2.49-3.63,3.53-5.19c1.53-2.3,0.92-5.4-1.38-6.94
		c-2.29-1.53-5.4-0.91-6.93,1.38c-1.12,1.68-2.25,3.36-3.41,5.01c-5.65,8.08-11.75,15.9-18.12,23.22
		c-6.49,7.46-13.52,14.72-20.91,21.57c-7.53,6.98-15.48,13.59-23.65,19.65c0,0,0,0,0,0c-1.49,1.11-3.01,2.18-4.53,3.26l-0.15,0.1
		c-2.25,1.6-2.78,4.72-1.19,6.97c0.97,1.38,2.52,2.11,4.08,2.11c1,0,2.01-0.3,2.89-0.92l0.14-0.1c1.57-1.12,3.14-2.23,4.69-3.38
		c0,0,0,0,0,0c8.46-6.27,16.7-13.12,24.5-20.35c7.64-7.09,14.93-14.61,21.65-22.34C190.46,468.87,196.78,460.78,202.63,452.41z
		 M135.15,484.96c7.57-6.48,14.86-13.49,21.67-20.83c0,0,0,0,0,0c6.69-7.21,13.02-14.86,18.83-22.74c0,0,0,0,0,0
		c5.77-7.83,11.12-16.01,15.91-24.31c0,0,0,0,0,0c0,0,0,0,0,0c2.5-4.33,4.97-8.94,7.33-13.68c1.23-2.47,0.23-5.47-2.24-6.71
		c-2.47-1.23-5.47-0.23-6.71,2.24c-2.28,4.56-4.65,8.99-7.04,13.15c0,0,0,0,0,0c-4.61,7.98-9.76,15.85-15.3,23.38c0,0,0,0,0,0
		c-5.58,7.58-11.67,14.93-18.1,21.87c0,0,0,0,0,0c-6.55,7.06-13.57,13.81-20.85,20.04c-7.49,6.41-15.43,12.43-23.59,17.9
		c0,0,0,0,0,0c-0.33,0.22-0.67,0.44-1.01,0.65c-0.29,0.18-0.57,0.36-0.85,0.55c-2.31,1.51-2.96,4.61-1.44,6.92
		c0.96,1.46,2.56,2.26,4.19,2.26c0.94,0,1.89-0.27,2.74-0.82c0.25-0.16,0.5-0.33,0.76-0.49c0.4-0.25,0.79-0.51,1.18-0.77
		c0,0,0.01,0,0.01,0C119.11,497.88,127.37,491.62,135.15,484.96z M143.53,420.33c-5.52,7.34-11.58,14.45-18.03,21.11c0,0,0,0,0,0
		c-6.5,6.71-13.49,13.08-20.78,18.93c0,0,0,0,0,0c-0.34,0.27-0.69,0.54-1.04,0.81c-0.28,0.21-0.55,0.42-0.82,0.64
		c-2.17,1.7-2.56,4.85-0.85,7.02c0.99,1.26,2.46,1.92,3.94,1.92c1.08,0,2.17-0.35,3.08-1.06l0.74-0.57
		c0.41-0.31,0.81-0.62,1.21-0.94c0,0,0,0,0,0c7.62-6.11,14.93-12.77,21.72-19.78c0,0,0,0,0,0c6.74-6.96,13.08-14.38,18.84-22.06
		c1.66-2.21,1.21-5.34-0.99-7C148.33,417.68,145.19,418.13,143.53,420.33z M156.1,411.22c0.82,0.51,1.73,0.76,2.64,0.76
		c1.67,0,3.3-0.84,4.25-2.36c1.55-2.5,3.07-5.04,4.51-7.56c0,0,0,0,0,0c4.88-8.55,9.27-17.54,13.05-26.72
		c4.09-9.96,7.51-20.24,10.14-30.56c0,0,0,0,0,0c4.77-18.7,7.2-38.05,7.2-57.51c0,0,0,0,0,0c0-4.01,0.48-8.05,1.41-11.99
		c0.64-2.69-1.02-5.38-3.71-6.02c-2.68-0.64-5.38,1.02-6.02,3.71c-1.12,4.7-1.68,9.52-1.68,14.3c0,0,0,0,0,0
		c0,18.62-2.32,37.14-6.89,55.03c0,0,0,0,0,0c-2.52,9.87-5.78,19.71-9.7,29.23c-3.61,8.78-7.81,17.38-12.48,25.56c0,0,0,0,0,0
		c-1.38,2.41-2.83,4.85-4.32,7.24C153.04,406.68,153.75,409.76,156.1,411.22z M155.03,348.28c-2.61-0.92-5.46,0.46-6.37,3.06
		c-3.08,8.78-6.85,17.43-11.19,25.71c0,0,0,0,0,0c-4.44,8.45-9.55,16.65-15.2,24.37c0,0,0,0,0,0.01
		c-5.46,7.46-11.51,14.59-17.99,21.2c-0.35,0.36-0.71,0.71-1.07,1.06c-0.26,0.25-0.52,0.51-0.78,0.77
		c-1.96,1.94-1.97,5.11-0.03,7.07c0.98,0.99,2.26,1.48,3.55,1.48c1.27,0,2.55-0.48,3.52-1.45l0.71-0.7
		c0.42-0.41,0.83-0.81,1.24-1.23c0,0,0,0,0,0c0,0,0,0,0,0c6.81-6.95,13.17-14.45,18.92-22.29c0,0,0,0,0,0
		c5.94-8.12,11.32-16.74,15.99-25.62c0,0,0,0,0-0.01c4.57-8.71,8.53-17.8,11.77-27.04C159.01,352.05,157.64,349.19,155.03,348.28z
		 M105.94,81.41c0.97,0,1.95-0.28,2.81-0.87c16.46-11.24,34.26-20.48,52.89-27.48c2.58-0.97,3.89-3.85,2.92-6.44
		c-0.97-2.58-3.85-3.89-6.44-2.92c-19.38,7.28-37.89,16.9-55.01,28.58c-2.28,1.56-2.87,4.67-1.31,6.95
		C102.77,80.65,104.34,81.41,105.94,81.41z M327.33,79.51c48.3,17.24,90.95,54.28,117.02,101.63c0.91,1.65,2.62,2.59,4.38,2.59
		c0.81,0,1.64-0.2,2.41-0.62c2.42-1.33,3.3-4.37,1.97-6.79c-27.23-49.46-71.85-88.17-122.42-106.22c-2.6-0.93-5.46,0.43-6.39,3.03
		C323.37,75.72,324.73,78.58,327.33,79.51z M102.09,114.98c0.99,1.19,2.42,1.81,3.85,1.81c1.12,0,2.25-0.38,3.19-1.15
		c52.41-43.42,129.22-60.39,195.67-43.22c2.67,0.69,5.4-0.92,6.09-3.59s-0.92-5.4-3.59-6.09c-34.2-8.83-71.42-9.29-107.62-1.32
		c-36.32,7.99-69.83,24.08-96.93,46.53C100.62,109.7,100.32,112.85,102.09,114.98z M422.63,200.77c0.88,1.75,2.64,2.76,4.47,2.76
		c0.75,0,1.52-0.17,2.24-0.53c2.47-1.24,3.47-4.24,2.23-6.71c-11.12-22.19-26.04-41.98-44.34-58.8
		c-18.52-17.03-39.7-30.31-62.93-39.48c-24.28-9.58-50.98-14.47-77.23-14.15c-26.26,0.33-52.78,5.86-76.7,15.98
		c-22.55,9.55-43.02,22.97-60.82,39.87c-2.45,2.32-4.88,4.75-7.22,7.21c-1.91,2-1.83,5.16,0.17,7.07c2,1.91,5.16,1.83,7.07-0.17
		c2.23-2.34,4.54-4.65,6.87-6.85c16.94-16.08,36.4-28.83,57.84-37.91c22.73-9.63,47.95-14.88,72.92-15.19
		c24.98-0.3,50.35,4.34,73.44,13.45c22.09,8.72,42.22,21.35,59.84,37.54C397.87,160.85,412.05,179.67,422.63,200.77z M440.65,217.32
		c-0.95-2.59-3.82-3.92-6.41-2.97c-2.59,0.95-3.92,3.82-2.98,6.42c7.79,21.25,11.73,43.62,11.74,66.51
		c0,44.24-6.08,88.11-18.07,130.38c-0.75,2.66,0.79,5.42,3.45,6.17c0.46,0.13,0.92,0.19,1.37,0.19c2.18,0,4.18-1.44,4.81-3.64
		C446.79,377.22,453,332.43,453,287.27c0,0,0,0,0,0s0,0,0,0C453,263.21,448.84,239.67,440.65,217.32z M424.65,287.16
		c-0.7-31.63-7.65-59.28-21.25-84.53l-0.1-0.17c-13.37-22.63-29.94-41.18-50.66-56.72c-2.21-1.66-5.34-1.21-7,1
		c-1.66,2.21-1.21,5.34,1,7c19.61,14.71,35.32,32.29,48,53.72c12.79,23.79,19.33,49.92,20.01,79.88c0,5.05-0.09,10.18-0.26,15.24
		c-0.09,2.76,2.07,5.07,4.83,5.17c0.06,0,0.11,0,0.17,0c2.68,0,4.9-2.13,4.99-4.83c0.17-5.2,0.26-10.46,0.26-15.65
		c0-0.02-0.01-0.04-0.01-0.05C424.65,287.19,424.65,287.18,424.65,287.16z M338.02,136.14c-37.08-22.6-83.88-29.18-131.79-18.54
		c-2.7,0.6-4.4,3.27-3.8,5.97c0.6,2.7,3.27,4.39,5.97,3.8c45.37-10.08,89.55-3.93,124.42,17.31c0.81,0.5,1.71,0.73,2.6,0.73
		c1.69,0,3.33-0.85,4.27-2.4C341.12,140.65,340.38,137.58,338.02,136.14z M103.25,200.38c0.83,0.53,1.76,0.78,2.68,0.78
		c1.65,0,3.27-0.82,4.22-2.32c4.15-6.53,8.81-12.83,13.84-18.72c17.89-20.95,40.88-37.22,66.49-47.04c2.58-0.99,3.87-3.88,2.88-6.46
		s-3.88-3.87-6.46-2.88c-27.16,10.42-51.54,27.67-70.51,49.88c-5.34,6.25-10.27,12.93-14.67,19.85
		C100.23,195.81,100.92,198.9,103.25,200.38z M199.04,154.72c-1.07-2.54-4.01-3.73-6.55-2.66c-54.46,23.02-89.64,76.09-89.64,135.21
		c0,7.42-0.62,14.93-1.84,22.33c-0.45,2.72,1.39,5.3,4.12,5.75c0.28,0.04,0.55,0.07,0.82,0.07c2.4,0,4.52-1.74,4.93-4.19
		c1.31-7.93,1.97-15.99,1.97-23.96c0-55.09,32.79-104.55,83.54-126C198.92,160.19,200.11,157.26,199.04,154.72z M356.14,186.41
		c-1.9-2-5.06-2.09-7.07-0.19c-2,1.9-2.09,5.06-0.19,7.07c24.13,25.49,37.42,58.87,37.42,93.98c0,18.89-1.27,37.91-3.78,56.52
		c-0.37,2.74,1.55,5.25,4.29,5.62c0.23,0.03,0.45,0.05,0.67,0.05c2.46,0,4.61-1.82,4.95-4.33c2.57-19.05,3.87-38.51,3.87-57.85
		c0,0,0,0,0,0s0,0,0,0C396.31,249.59,382.04,213.77,356.14,186.41z M191.99,183.81c-37.51,20.92-60.81,60.56-60.81,103.45
		c0,21.66-4.16,42.76-12.37,62.72c0,0,0,0,0,0c-4.1,9.96-9.19,19.55-15.14,28.51c0,0,0,0,0,0c-0.61,0.91-1.22,1.81-1.85,2.71
		c-1.58,2.27-1.02,5.38,1.25,6.96c0.87,0.6,1.86,0.89,2.85,0.89c1.58,0,3.14-0.75,4.11-2.15c0.66-0.95,1.32-1.91,1.96-2.88
		c0,0,0,0,0-0.01c6.31-9.5,11.72-19.67,16.06-30.24c0,0,0,0,0-0.01c8.71-21.17,13.12-43.55,13.12-66.53
		c0-39.27,21.33-75.57,55.68-94.72c2.41-1.34,3.28-4.39,1.93-6.8C197.45,183.33,194.41,182.47,191.99,183.81z M197.68,226.36
		c2.1-1.79,2.35-4.95,0.56-7.05c-1.79-2.1-4.95-2.35-7.05-0.56c-20.11,17.16-31.65,42.13-31.65,68.51c0,0,0,0,0,0
		c-0.01,14.81-1.7,29.59-5.02,43.94c-0.62,2.69,1.05,5.38,3.74,6c0.38,0.09,0.76,0.13,1.13,0.13c2.27,0,4.33-1.56,4.87-3.87
		c3.5-15.08,5.27-30.62,5.28-46.19c0,0,0,0,0,0s0,0,0,0C169.53,263.81,179.79,241.62,197.68,226.36z"/>
</g>
<g id="图层_3">
</g>
</svg>
