<?xml version="1.0" encoding="UTF-8"?>
<svg id="a" data-name="图层 2" xmlns="http://www.w3.org/2000/svg" xmlns:xlink="http://www.w3.org/1999/xlink" viewBox="0 0 457.33 508.26">
  <defs>
    <style>
      .d {
        fill: url(#b);
        stroke-width: 0px;
      }
    </style>
    <linearGradient id="b" data-name="未命名的渐变 4" x1="-58.64" y1="140.21" x2="324.3" y2="418.43" gradientUnits="userSpaceOnUse">
      <stop offset="0" stop-color="#243949"/>
      <stop offset=".44" stop-color="#36556d"/>
      <stop offset="1" stop-color="#4d7697"/>
    </linearGradient>
  </defs>
  <path class="d" d="m322.47,304.61c-.67,7.56-1.44,14.93-2.28,21.9-3.39,28.01-8.28,52.44-14.96,74.67,0,0,0,0,0,.01-5.83,19.89-13.06,39.49-21.48,58.27,0,0,0,.01,0,.02-.59,1.32-1.2,2.63-1.8,3.94l-.23.5c-.84,1.83-2.65,2.91-4.54,2.91-.7,0-1.41-.15-2.09-.46-2.51-1.16-3.6-4.13-2.45-6.63l.23-.51c.59-1.28,1.19-2.57,1.76-3.86,0,0,0,0,0-.01,8.24-18.37,15.31-37.56,21.02-57.02,0,0,0,0,0-.01,0,0,0-.01,0-.02,6.51-21.68,11.29-45.56,14.61-73,.83-6.86,1.59-14.12,2.25-21.58.24-2.75,2.67-4.79,5.42-4.54,2.75.24,4.78,2.67,4.54,5.42Zm-42.74,82.62c4.02-14.5,7.32-29.4,9.79-44.27.45-2.72-1.39-5.3-4.11-5.75-2.73-.46-5.3,1.39-5.75,4.11-2.42,14.52-5.64,29.07-9.57,43.24-4.91,17.72-11.04,35.22-18.2,52.03,0,0,0,0,0,0-6.17,14.47-13.27,28.8-21.1,42.59,0,0,0,0,0,0-.73,1.28-1.47,2.55-2.21,3.83-1.39,2.39-.58,5.45,1.81,6.84.79.46,1.66.68,2.51.68,1.72,0,3.4-.89,4.33-2.49.76-1.3,1.51-2.6,2.26-3.91,0,0,0,0,0,0,8.02-14.12,15.29-28.79,21.6-43.61,0,0,0,0,0,0,7.34-17.21,13.61-35.13,18.64-53.27Zm-60.02,74.04c3.16-5.91,6.21-11.96,9.06-17.99,1.18-2.5.11-5.48-2.39-6.66-2.5-1.18-5.48-.11-6.66,2.39-2.78,5.88-5.75,11.79-8.83,17.54,0,0,0,0,0,0-6.43,12.01-13.5,23.73-21.02,34.84,0,0,0,0,0,0-.4.59-.81,1.18-1.22,1.76-.29.42-.59.83-.88,1.25-1.57,2.27-1,5.39,1.27,6.96.87.6,1.86.89,2.84.89,1.59,0,3.15-.75,4.12-2.16.28-.4.55-.79.83-1.19.44-.63.89-1.26,1.32-1.9,0,0,0,0,0,0,7.71-11.39,14.97-23.41,21.55-35.73,0,0,0,0,0,0Zm9.46-43.97s0,0,0,0c-.49,1.22-.98,2.45-1.49,3.67-1.05,2.55.17,5.48,2.73,6.52.62.26,1.26.38,1.9.38,1.97,0,3.83-1.17,4.63-3.1.51-1.25,1.02-2.5,1.52-3.75,0,0,0,0,0,0,6.27-15.69,11.58-31.89,15.79-48.14,2.3-8.9,4.33-18.1,6.05-27.35.5-2.72-1.29-5.32-4.01-5.83-2.72-.51-5.32,1.29-5.83,4.01-1.67,9.02-3.65,17.99-5.89,26.66-4.1,15.84-9.27,31.63-15.39,46.93Zm-29.21,20.38c3.98-8.03,7.73-16.32,11.13-24.64,1.04-2.56-.18-5.48-2.74-6.52-2.56-1.04-5.48.18-6.52,2.74-3.31,8.1-6.96,16.17-10.83,23.99-5.5,11.1-11.63,22.02-18.22,32.46,0,0,0,0,0,0-6.5,10.3-13.56,20.34-20.98,29.84,0,0,0,0,0,0,0,0,0,0,0,0-.63.81-1.28,1.61-1.92,2.41l-.98,1.21c-1.73,2.15-1.38,5.3.77,7.03.92.74,2.03,1.1,3.12,1.1,1.46,0,2.92-.64,3.9-1.87l.95-1.18c.68-.84,1.36-1.68,2.03-2.54,0,0,0,0,0,0,7.63-9.76,14.88-20.08,21.55-30.66,0,0,0,0,0,0,6.77-10.73,13.07-21.95,18.73-33.35Zm-54.33,35.49c6.76-9.4,13.07-19.17,18.76-29.05,2.99-5.18,5.94-10.65,8.78-16.25,1.25-2.46.26-5.47-2.2-6.72-2.46-1.25-5.47-.26-6.72,2.2-2.76,5.44-5.62,10.74-8.52,15.77-5.53,9.59-11.66,19.08-18.22,28.21,0,0,0,0,0,0-6.5,9.04-13.57,17.9-21,26.33,0,0,0,0,0,0-1.82,2.06-3.7,4.14-5.59,6.18-1.88,2.02-1.76,5.19.26,7.07.96.89,2.18,1.33,3.4,1.33,1.34,0,2.68-.54,3.67-1.6,1.95-2.1,3.89-4.25,5.77-6.37,0,0,0,0,0,0,7.66-8.67,14.93-17.79,21.63-27.11,0,0,0,0,0,0Zm-32.81-3.63c6.73-8.42,13.05-17.21,18.8-26.14,0,0,0,0,0,0,2.35-3.64,4.7-7.48,7.19-11.74,1.39-2.38.59-5.45-1.79-6.84-2.38-1.4-5.45-.59-6.84,1.79-2.42,4.14-4.7,7.86-6.97,11.38,0,0,0,0,0,0-5.57,8.64-11.7,17.16-18.22,25.32-6.54,8.19-13.59,16.14-20.95,23.63,0,0,0,0,0,0-4.11,4.18-8.54,8.43-13.16,12.62-2.05,1.85-2.2,5.02-.35,7.06.99,1.09,2.34,1.64,3.71,1.64,1.2,0,2.4-.43,3.36-1.29,4.76-4.32,9.33-8.7,13.58-13.02,0,0,0,0,0,0,7.6-7.73,14.87-15.94,21.62-24.39Zm-11.13-32.42c1.26-1.8,2.49-3.63,3.53-5.19,1.53-2.3.92-5.4-1.38-6.94-2.29-1.53-5.4-.91-6.93,1.38-1.12,1.68-2.25,3.36-3.41,5.01-5.65,8.08-11.75,15.9-18.12,23.22-6.49,7.46-13.52,14.72-20.91,21.57-7.53,6.98-15.48,13.59-23.65,19.65,0,0,0,0,0,0-1.49,1.11-3.01,2.18-4.53,3.26l-.15.1c-2.25,1.6-2.78,4.72-1.19,6.97.97,1.38,2.52,2.11,4.08,2.11,1,0,2.01-.3,2.89-.92l.14-.1c1.57-1.12,3.14-2.23,4.69-3.38,0,0,0,0,0,0,8.46-6.27,16.7-13.12,24.5-20.35,7.64-7.09,14.93-14.61,21.65-22.34,6.6-7.59,12.91-15.68,18.77-24.05Zm-67.48,32.55c7.57-6.48,14.86-13.49,21.67-20.83,0,0,0,0,0,0,6.69-7.21,13.02-14.86,18.83-22.74,0,0,0,0,0,0,5.77-7.83,11.12-16.01,15.91-24.31h0s0,0,0,0c2.5-4.33,4.97-8.94,7.33-13.68,1.23-2.47.23-5.47-2.24-6.71-2.47-1.23-5.47-.23-6.71,2.24-2.28,4.56-4.65,8.99-7.04,13.15,0,0,0,0,0,0-4.61,7.98-9.76,15.85-15.3,23.38,0,0,0,0,0,0-5.58,7.58-11.67,14.93-18.1,21.87,0,0,0,0,0,0-6.55,7.06-13.57,13.81-20.85,20.04-7.49,6.41-15.43,12.43-23.59,17.9,0,0,0,0,0,0-.33.22-.67.44-1.01.65-.29.18-.57.36-.85.55-2.31,1.51-2.96,4.61-1.44,6.92.96,1.46,2.56,2.26,4.19,2.26.94,0,1.89-.27,2.74-.82.25-.16.5-.33.76-.49.4-.25.79-.51,1.18-.77,0,0,0,0,0,0,8.49-5.68,16.74-11.95,24.53-18.61Zm8.38-64.62c-5.52,7.34-11.58,14.45-18.03,21.11,0,0,0,0,0,0-6.5,6.71-13.49,13.08-20.78,18.93,0,0,0,0,0,0-.34.27-.69.54-1.04.81-.28.21-.55.42-.82.64-2.17,1.7-2.56,4.85-.85,7.02.99,1.26,2.46,1.92,3.94,1.92,1.08,0,2.17-.35,3.08-1.06l.74-.57c.41-.31.81-.62,1.21-.94,0,0,0,0,0,0,7.62-6.11,14.93-12.77,21.72-19.78,0,0,0,0,0,0,6.74-6.96,13.08-14.38,18.84-22.06,1.66-2.21,1.21-5.34-.99-7-2.21-1.66-5.34-1.21-7,1Zm12.56-9.11c.82.51,1.73.76,2.64.76,1.67,0,3.3-.84,4.25-2.36,1.55-2.5,3.07-5.04,4.51-7.56,0,0,0,0,0,0,4.88-8.55,9.27-17.54,13.05-26.72,4.09-9.96,7.51-20.24,10.14-30.56,0,0,0,0,0,0,4.77-18.7,7.2-38.05,7.2-57.51h0c0-4.01.48-8.05,1.41-11.99.64-2.69-1.02-5.38-3.71-6.02-2.68-.64-5.38,1.02-6.02,3.71-1.12,4.7-1.68,9.52-1.68,14.3,0,0,0,0,0,0,0,18.62-2.32,37.14-6.89,55.03,0,0,0,0,0,0-2.52,9.87-5.78,19.71-9.7,29.23-3.61,8.78-7.81,17.38-12.48,25.56,0,0,0,0,0,0-1.38,2.41-2.83,4.85-4.32,7.24-1.46,2.34-.74,5.43,1.6,6.89Zm-1.07-62.94c-2.61-.92-5.46.46-6.37,3.06-3.08,8.78-6.85,17.43-11.19,25.71,0,0,0,0,0,0-4.44,8.45-9.55,16.65-15.2,24.37,0,0,0,0,0,0-5.46,7.46-11.51,14.59-17.99,21.2-.35.36-.71.71-1.07,1.06-.26.25-.52.51-.78.77-1.96,1.94-1.97,5.11-.03,7.07.98.99,2.26,1.48,3.55,1.48s2.55-.48,3.52-1.45l.71-.7c.42-.41.83-.81,1.24-1.23,0,0,0,0,0,0,0,0,0,0,0,0,6.81-6.95,13.17-14.45,18.92-22.29,0,0,0,0,0,0,5.94-8.12,11.32-16.74,15.99-25.62,0,0,0,0,0,0,4.57-8.71,8.53-17.8,11.77-27.04.91-2.61-.46-5.46-3.06-6.37ZM5.01,66.12c.97,0,1.95-.28,2.81-.87,16.46-11.24,34.26-20.48,52.89-27.48,2.58-.97,3.89-3.85,2.92-6.44-.97-2.58-3.85-3.89-6.44-2.92-19.38,7.28-37.89,16.9-55.01,28.58-2.28,1.56-2.87,4.67-1.31,6.95.97,1.42,2.54,2.18,4.13,2.18Zm221.39-1.91c48.3,17.24,90.95,54.28,117.02,101.63.91,1.65,2.62,2.59,4.38,2.59.81,0,1.64-.2,2.41-.62,2.42-1.33,3.3-4.37,1.97-6.79-27.23-49.46-71.85-88.17-122.42-106.22-2.6-.93-5.46.43-6.39,3.03-.93,2.6.43,5.46,3.03,6.39ZM1.15,99.68c.99,1.19,2.42,1.81,3.85,1.81,1.12,0,2.25-.38,3.19-1.15,52.41-43.42,129.22-60.39,195.67-43.22,2.67.69,5.4-.92,6.09-3.59s-.92-5.4-3.59-6.09c-34.2-8.83-71.42-9.29-107.62-1.32C62.42,54.11,28.9,70.2,1.81,92.64c-2.13,1.76-2.42,4.91-.66,7.04Zm320.54,85.79c.88,1.75,2.64,2.76,4.47,2.76.75,0,1.52-.17,2.24-.53,2.47-1.24,3.47-4.24,2.23-6.71-11.12-22.19-26.04-41.98-44.34-58.8-18.52-17.03-39.7-30.31-62.93-39.48-24.28-9.58-50.98-14.47-77.23-14.15-26.26.33-52.78,5.86-76.7,15.98-22.55,9.55-43.02,22.97-60.82,39.87-2.45,2.32-4.88,4.75-7.22,7.21-1.91,2-1.83,5.16.17,7.07,2,1.91,5.16,1.83,7.07-.17,2.23-2.34,4.54-4.65,6.87-6.85,16.94-16.08,36.4-28.83,57.84-37.91,22.73-9.63,47.95-14.88,72.92-15.19,24.98-.3,50.35,4.34,73.44,13.45,22.09,8.72,42.22,21.35,59.84,37.54,17.41,16,31.6,34.81,42.17,55.92Zm18.02,16.55c-.95-2.59-3.82-3.92-6.41-2.97-2.59.95-3.92,3.82-2.98,6.42,7.79,21.25,11.73,43.62,11.74,66.51,0,44.24-6.08,88.11-18.07,130.38-.75,2.66.79,5.42,3.45,6.17.46.13.92.19,1.37.19,2.18,0,4.18-1.44,4.81-3.64,12.24-43.16,18.45-87.94,18.45-133.11,0,0,0,0,0,0s0,0,0,0c0-24.06-4.16-47.59-12.35-69.95Zm-16,69.84c-.7-31.63-7.65-59.28-21.25-84.53l-.1-.17c-13.37-22.63-29.94-41.18-50.66-56.72-2.21-1.66-5.34-1.21-7,1-1.66,2.21-1.21,5.34,1,7,19.61,14.71,35.32,32.29,48,53.72,12.79,23.79,19.33,49.92,20.01,79.88,0,5.05-.09,10.18-.26,15.24-.09,2.76,2.07,5.07,4.83,5.17.06,0,.11,0,.17,0,2.68,0,4.9-2.13,4.99-4.83.17-5.2.26-10.46.26-15.65,0-.02,0-.04,0-.05,0-.02,0-.04,0-.06Zm-86.63-151.02c-37.08-22.6-83.88-29.18-131.79-18.54-2.7.6-4.4,3.27-3.8,5.97.6,2.7,3.27,4.39,5.97,3.8,45.37-10.08,89.55-3.93,124.42,17.31.81.5,1.71.73,2.6.73,1.69,0,3.33-.85,4.27-2.4,1.44-2.36.69-5.43-1.67-6.87ZM2.32,185.09c.83.53,1.76.78,2.68.78,1.65,0,3.27-.82,4.22-2.32,4.15-6.53,8.81-12.83,13.84-18.72,17.89-20.95,40.88-37.22,66.49-47.04,2.58-.99,3.87-3.88,2.88-6.46s-3.88-3.87-6.46-2.88c-27.16,10.42-51.54,27.67-70.51,49.88-5.34,6.25-10.27,12.93-14.67,19.85-1.48,2.33-.79,5.42,1.54,6.9Zm95.78-45.67c-1.07-2.54-4.01-3.73-6.55-2.66C37.09,159.78,1.91,212.86,1.91,271.97c0,7.42-.62,14.93-1.84,22.33-.45,2.72,1.39,5.3,4.12,5.75.28.04.55.07.82.07,2.4,0,4.52-1.74,4.93-4.19,1.31-7.93,1.97-15.99,1.97-23.96,0-55.09,32.79-104.55,83.54-126,2.54-1.08,3.73-4.01,2.66-6.55Zm157.11,31.7c-1.9-2-5.06-2.09-7.07-.19-2,1.9-2.09,5.06-.19,7.07,24.13,25.49,37.42,58.87,37.42,93.98,0,18.89-1.27,37.91-3.78,56.52-.37,2.74,1.55,5.25,4.29,5.62.23.03.45.05.67.05,2.46,0,4.61-1.82,4.95-4.33,2.57-19.05,3.87-38.51,3.87-57.85,0,0,0,0,0,0s0,0,0,0c0-37.68-14.26-73.5-40.16-100.86Zm-164.15-2.6c-37.51,20.92-60.81,60.56-60.81,103.45,0,21.66-4.16,42.76-12.37,62.72,0,0,0,0,0,0-4.1,9.96-9.19,19.55-15.14,28.51,0,0,0,0,0,0-.61.91-1.22,1.81-1.85,2.71-1.58,2.27-1.02,5.38,1.25,6.96.87.6,1.86.89,2.85.89,1.58,0,3.14-.75,4.11-2.15.66-.95,1.32-1.91,1.96-2.88,0,0,0,0,0,0,6.31-9.5,11.72-19.67,16.06-30.24,0,0,0,0,0,0,8.71-21.17,13.12-43.55,13.12-66.53,0-39.27,21.33-75.57,55.68-94.72,2.41-1.34,3.28-4.39,1.93-6.8-1.34-2.41-4.39-3.28-6.8-1.93Zm5.68,42.55c2.1-1.79,2.35-4.95.56-7.05-1.79-2.1-4.95-2.35-7.05-.56-20.11,17.16-31.65,42.13-31.65,68.51,0,0,0,0,0,0,0,14.81-1.7,29.59-5.02,43.94-.62,2.69,1.05,5.38,3.74,6,.38.09.76.13,1.13.13,2.27,0,4.33-1.56,4.87-3.87,3.5-15.08,5.27-30.62,5.28-46.19,0,0,0,0,0,0s0,0,0,0c0-23.45,10.26-45.65,28.14-60.91Z"/>
</svg>